<svg xmlns="http://www.w3.org/2000/svg" width="1024" height="1024" viewBox="0 0 1024 1024"><defs><linearGradient id="a"><stop offset="0" stop-color="#bdd5ea"/><stop offset="1" stop-color="#fe5f55"/></linearGradient><linearGradient href="#a" id="b" x1="0" x2="0" y1="0" y2="1024" gradientUnits="userSpaceOnUse"/></defs><path fill="url(#b)" d="M0 0h1024v1024H0z"/><path fill="#577399" d="M554 105.8c0-41.7-53.6-57.4-77.3-22.9C260 399.7 568 414 568 568a112 112 0 0 1-113.5 112A113 113 0 0 1 344 566.3V416.7a42 42 0 0 0-72.5-28.9C224.7 437 176 521.3 176 624c0 185.3 150.7 336 336 336s336-150.7 336-336c0-298-294-337.7-294-518.2z"/></svg>